<mxfile host="app.diagrams.net" modified="2020-11-08T16:46:03.033Z" agent="5.0 (Windows NT 10.0; Win64; x64) AppleWebKit/537.36 (KHTML, like Gecko) Chrome/86.0.4240.111 Safari/537.36" etag="S0wi08GfYwNT3WsCS5DH" version="13.9.2" type="github">
  <diagram id="HGv15Up_wFCBn1hzTuOe" name="Page-1">
    <mxGraphModel dx="2920" dy="2418" grid="1" gridSize="10" guides="1" tooltips="1" connect="1" arrows="1" fold="1" page="1" pageScale="1" pageWidth="827" pageHeight="1169" math="0" shadow="0">
      <root>
        <mxCell id="0" />
        <mxCell id="1" parent="0" />
        <mxCell id="ZCHlw5TDTNwKEh7PZDNd-6" style="edgeStyle=orthogonalEdgeStyle;rounded=0;orthogonalLoop=1;jettySize=auto;html=1;exitX=1;exitY=0.5;exitDx=0;exitDy=0;entryX=0;entryY=0.5;entryDx=0;entryDy=0;entryPerimeter=0;" parent="1" source="ZCHlw5TDTNwKEh7PZDNd-1" target="ZCHlw5TDTNwKEh7PZDNd-2" edge="1">
          <mxGeometry relative="1" as="geometry" />
        </mxCell>
        <mxCell id="ZCHlw5TDTNwKEh7PZDNd-1" value="&lt;font style=&quot;vertical-align: inherit&quot;&gt;&lt;font style=&quot;vertical-align: inherit&quot;&gt;输入:trian_id&lt;/font&gt;&lt;/font&gt;" style="rounded=1;whiteSpace=wrap;html=1;" parent="1" vertex="1">
          <mxGeometry x="30" y="-330" width="120" height="60" as="geometry" />
        </mxCell>
        <mxCell id="ZCHlw5TDTNwKEh7PZDNd-5" style="edgeStyle=orthogonalEdgeStyle;rounded=0;orthogonalLoop=1;jettySize=auto;html=1;exitX=0.5;exitY=1;exitDx=0;exitDy=0;exitPerimeter=0;" parent="1" source="ZCHlw5TDTNwKEh7PZDNd-2" target="ZCHlw5TDTNwKEh7PZDNd-7" edge="1">
          <mxGeometry relative="1" as="geometry">
            <mxPoint x="280" y="-290" as="targetPoint" />
          </mxGeometry>
        </mxCell>
        <mxCell id="ZCHlw5TDTNwKEh7PZDNd-2" value="&lt;font style=&quot;vertical-align: inherit&quot;&gt;&lt;font style=&quot;vertical-align: inherit&quot;&gt;&lt;font style=&quot;vertical-align: inherit&quot;&gt;&lt;font style=&quot;vertical-align: inherit&quot;&gt;task_database&lt;/font&gt;&lt;/font&gt;&lt;br&gt;&lt;/font&gt;&lt;/font&gt;" style="strokeWidth=2;html=1;shape=mxgraph.flowchart.database;whiteSpace=wrap;" parent="1" vertex="1">
          <mxGeometry x="230" y="-410" width="100" height="70" as="geometry" />
        </mxCell>
        <mxCell id="ZCHlw5TDTNwKEh7PZDNd-13" style="edgeStyle=orthogonalEdgeStyle;rounded=0;orthogonalLoop=1;jettySize=auto;html=1;exitX=0.5;exitY=1;exitDx=0;exitDy=0;exitPerimeter=0;" parent="1" source="ZCHlw5TDTNwKEh7PZDNd-3" target="ZCHlw5TDTNwKEh7PZDNd-12" edge="1">
          <mxGeometry relative="1" as="geometry" />
        </mxCell>
        <mxCell id="ZCHlw5TDTNwKEh7PZDNd-3" value="&lt;font style=&quot;vertical-align: inherit&quot;&gt;&lt;font style=&quot;vertical-align: inherit&quot;&gt;data_database&lt;/font&gt;&lt;/font&gt;" style="strokeWidth=2;html=1;shape=mxgraph.flowchart.database;whiteSpace=wrap;" parent="1" vertex="1">
          <mxGeometry x="480" y="-410" width="100" height="70" as="geometry" />
        </mxCell>
        <mxCell id="ZCHlw5TDTNwKEh7PZDNd-9" style="edgeStyle=orthogonalEdgeStyle;rounded=0;orthogonalLoop=1;jettySize=auto;html=1;exitX=0.5;exitY=1;exitDx=0;exitDy=0;" parent="1" source="ZCHlw5TDTNwKEh7PZDNd-7" target="ZCHlw5TDTNwKEh7PZDNd-8" edge="1">
          <mxGeometry relative="1" as="geometry" />
        </mxCell>
        <mxCell id="ZCHlw5TDTNwKEh7PZDNd-50" style="edgeStyle=orthogonalEdgeStyle;rounded=0;orthogonalLoop=1;jettySize=auto;html=1;entryX=0;entryY=0.5;entryDx=0;entryDy=0;" parent="1" source="ZCHlw5TDTNwKEh7PZDNd-7" target="ZCHlw5TDTNwKEh7PZDNd-49" edge="1">
          <mxGeometry relative="1" as="geometry">
            <Array as="points">
              <mxPoint x="161" y="-280" />
              <mxPoint x="161" y="620" />
            </Array>
          </mxGeometry>
        </mxCell>
        <mxCell id="ZCHlw5TDTNwKEh7PZDNd-7" value="时间范围&lt;br&gt;空间范围" style="shape=parallelogram;html=1;strokeWidth=2;perimeter=parallelogramPerimeter;whiteSpace=wrap;rounded=1;arcSize=12;size=0.23;" parent="1" vertex="1">
          <mxGeometry x="230" y="-310" width="100" height="60" as="geometry" />
        </mxCell>
        <mxCell id="ZCHlw5TDTNwKEh7PZDNd-10" style="edgeStyle=orthogonalEdgeStyle;rounded=0;orthogonalLoop=1;jettySize=auto;html=1;exitX=1;exitY=0.5;exitDx=0;exitDy=0;entryX=0;entryY=0.5;entryDx=0;entryDy=0;entryPerimeter=0;" parent="1" source="ZCHlw5TDTNwKEh7PZDNd-8" target="ZCHlw5TDTNwKEh7PZDNd-3" edge="1">
          <mxGeometry relative="1" as="geometry" />
        </mxCell>
        <mxCell id="ZCHlw5TDTNwKEh7PZDNd-8" value="构建查询语句" style="rounded=1;whiteSpace=wrap;html=1;absoluteArcSize=1;arcSize=14;strokeWidth=2;" parent="1" vertex="1">
          <mxGeometry x="230" y="-190" width="100" height="30" as="geometry" />
        </mxCell>
        <mxCell id="ZCHlw5TDTNwKEh7PZDNd-15" style="edgeStyle=orthogonalEdgeStyle;rounded=0;orthogonalLoop=1;jettySize=auto;html=1;exitX=1;exitY=0.5;exitDx=0;exitDy=0;entryX=0;entryY=0.5;entryDx=0;entryDy=0;" parent="1" source="ZCHlw5TDTNwKEh7PZDNd-12" target="ZCHlw5TDTNwKEh7PZDNd-24" edge="1">
          <mxGeometry relative="1" as="geometry">
            <mxPoint x="580" y="-290" as="targetPoint" />
          </mxGeometry>
        </mxCell>
        <mxCell id="ZCHlw5TDTNwKEh7PZDNd-12" value="所有案件数据all_data&lt;br&gt;(id,hour, lon,lat）" style="shape=parallelogram;html=1;strokeWidth=2;perimeter=parallelogramPerimeter;whiteSpace=wrap;rounded=1;arcSize=12;size=0.23;" parent="1" vertex="1">
          <mxGeometry x="475" y="-310" width="110" height="60" as="geometry" />
        </mxCell>
        <mxCell id="ZCHlw5TDTNwKEh7PZDNd-23" style="edgeStyle=orthogonalEdgeStyle;rounded=0;orthogonalLoop=1;jettySize=auto;html=1;entryX=0.5;entryY=0;entryDx=0;entryDy=0;" parent="1" source="ZCHlw5TDTNwKEh7PZDNd-16" target="ZCHlw5TDTNwKEh7PZDNd-24" edge="1">
          <mxGeometry relative="1" as="geometry">
            <mxPoint x="701.5" y="-30" as="targetPoint" />
          </mxGeometry>
        </mxCell>
        <mxCell id="ZCHlw5TDTNwKEh7PZDNd-16" value="输入: layer" style="rounded=1;whiteSpace=wrap;html=1;absoluteArcSize=1;arcSize=14;strokeWidth=2;" parent="1" vertex="1">
          <mxGeometry x="645" y="-540" width="120" height="40" as="geometry" />
        </mxCell>
        <mxCell id="ZCHlw5TDTNwKEh7PZDNd-26" style="edgeStyle=orthogonalEdgeStyle;rounded=0;orthogonalLoop=1;jettySize=auto;html=1;exitX=1;exitY=0.5;exitDx=0;exitDy=0;" parent="1" source="ZCHlw5TDTNwKEh7PZDNd-24" target="ZCHlw5TDTNwKEh7PZDNd-25" edge="1">
          <mxGeometry relative="1" as="geometry" />
        </mxCell>
        <mxCell id="ZCHlw5TDTNwKEh7PZDNd-24" value="按layer对alldata进行四叉树编码&lt;br&gt;" style="rounded=1;whiteSpace=wrap;html=1;absoluteArcSize=1;arcSize=14;strokeWidth=2;" parent="1" vertex="1">
          <mxGeometry x="660" y="-325" width="90" height="90" as="geometry" />
        </mxCell>
        <mxCell id="ZCHlw5TDTNwKEh7PZDNd-36" style="edgeStyle=orthogonalEdgeStyle;rounded=0;orthogonalLoop=1;jettySize=auto;html=1;exitX=0.5;exitY=1;exitDx=0;exitDy=0;entryX=0.5;entryY=0;entryDx=0;entryDy=0;" parent="1" source="ZCHlw5TDTNwKEh7PZDNd-25" target="ZCHlw5TDTNwKEh7PZDNd-28" edge="1">
          <mxGeometry relative="1" as="geometry" />
        </mxCell>
        <mxCell id="ZCHlw5TDTNwKEh7PZDNd-25" value="所有案件数据alldata&lt;br&gt;(id,hour,lon,lat,&lt;br&gt;quadtree_code)" style="shape=parallelogram;html=1;strokeWidth=2;perimeter=parallelogramPerimeter;whiteSpace=wrap;rounded=1;arcSize=12;size=0.23;" parent="1" vertex="1">
          <mxGeometry x="830" y="-312.5" width="170" height="65" as="geometry" />
        </mxCell>
        <mxCell id="ZCHlw5TDTNwKEh7PZDNd-37" style="edgeStyle=orthogonalEdgeStyle;rounded=0;orthogonalLoop=1;jettySize=auto;html=1;exitX=0.5;exitY=1;exitDx=0;exitDy=0;entryX=0.5;entryY=0;entryDx=0;entryDy=0;" parent="1" source="ZCHlw5TDTNwKEh7PZDNd-28" target="ZCHlw5TDTNwKEh7PZDNd-29" edge="1">
          <mxGeometry relative="1" as="geometry" />
        </mxCell>
        <mxCell id="ZCHlw5TDTNwKEh7PZDNd-28" value="依据hour和quadtree_code进行聚类，计算每一类的个数count，并将分组结果转为list" style="rounded=1;whiteSpace=wrap;html=1;absoluteArcSize=1;arcSize=14;strokeWidth=2;" parent="1" vertex="1">
          <mxGeometry x="860" y="-220" width="100" height="100" as="geometry" />
        </mxCell>
        <mxCell id="ZCHlw5TDTNwKEh7PZDNd-38" style="edgeStyle=orthogonalEdgeStyle;rounded=0;orthogonalLoop=1;jettySize=auto;html=1;exitX=0.5;exitY=1;exitDx=0;exitDy=0;" parent="1" source="ZCHlw5TDTNwKEh7PZDNd-29" target="ZCHlw5TDTNwKEh7PZDNd-32" edge="1">
          <mxGeometry relative="1" as="geometry" />
        </mxCell>
        <mxCell id="ZCHlw5TDTNwKEh7PZDNd-29" value="根据四叉树编码获得每一类的行号temp_row和列号temp_col,并将属性添加至list" style="rounded=1;whiteSpace=wrap;html=1;absoluteArcSize=1;arcSize=14;strokeWidth=2;" parent="1" vertex="1">
          <mxGeometry x="860" y="-80" width="100" height="100" as="geometry" />
        </mxCell>
        <mxCell id="ZCHlw5TDTNwKEh7PZDNd-41" style="edgeStyle=orthogonalEdgeStyle;rounded=0;orthogonalLoop=1;jettySize=auto;html=1;exitX=1;exitY=0.5;exitDx=0;exitDy=0;entryX=0;entryY=0.5;entryDx=0;entryDy=0;" parent="1" source="ZCHlw5TDTNwKEh7PZDNd-32" target="ZCHlw5TDTNwKEh7PZDNd-39" edge="1">
          <mxGeometry relative="1" as="geometry" />
        </mxCell>
        <mxCell id="ZCHlw5TDTNwKEh7PZDNd-46" style="edgeStyle=orthogonalEdgeStyle;rounded=0;orthogonalLoop=1;jettySize=auto;html=1;exitX=0.5;exitY=1;exitDx=0;exitDy=0;entryX=0.5;entryY=0;entryDx=0;entryDy=0;" parent="1" source="ZCHlw5TDTNwKEh7PZDNd-32" target="ZCHlw5TDTNwKEh7PZDNd-45" edge="1">
          <mxGeometry relative="1" as="geometry" />
        </mxCell>
        <mxCell id="ZCHlw5TDTNwKEh7PZDNd-32" value="分类数据datagroupby&lt;br&gt;(quadtree_code,hour,count,&lt;br&gt;temp_row,temp_col)" style="shape=parallelogram;html=1;strokeWidth=2;perimeter=parallelogramPerimeter;whiteSpace=wrap;rounded=1;arcSize=12;size=0.23;" parent="1" vertex="1">
          <mxGeometry x="805" y="70" width="210" height="80" as="geometry" />
        </mxCell>
        <mxCell id="ZCHlw5TDTNwKEh7PZDNd-42" style="edgeStyle=orthogonalEdgeStyle;rounded=0;orthogonalLoop=1;jettySize=auto;html=1;exitX=1;exitY=0.5;exitDx=0;exitDy=0;entryX=0;entryY=0.5;entryDx=0;entryDy=0;" parent="1" source="ZCHlw5TDTNwKEh7PZDNd-39" target="ZCHlw5TDTNwKEh7PZDNd-40" edge="1">
          <mxGeometry relative="1" as="geometry" />
        </mxCell>
        <mxCell id="ZCHlw5TDTNwKEh7PZDNd-39" value="获得最大和最小行列号并计算行列数" style="rounded=1;whiteSpace=wrap;html=1;absoluteArcSize=1;arcSize=14;strokeWidth=2;" parent="1" vertex="1">
          <mxGeometry x="1050" y="60" width="100" height="100" as="geometry" />
        </mxCell>
        <mxCell id="ZCHlw5TDTNwKEh7PZDNd-43" style="edgeStyle=orthogonalEdgeStyle;rounded=0;orthogonalLoop=1;jettySize=auto;html=1;entryX=0.5;entryY=0;entryDx=0;entryDy=0;entryPerimeter=0;exitX=0.5;exitY=0;exitDx=0;exitDy=0;" parent="1" source="ZCHlw5TDTNwKEh7PZDNd-40" target="ZCHlw5TDTNwKEh7PZDNd-2" edge="1">
          <mxGeometry relative="1" as="geometry">
            <mxPoint x="670" y="-450" as="targetPoint" />
            <Array as="points">
              <mxPoint x="1265" y="-430" />
              <mxPoint x="280" y="-430" />
            </Array>
          </mxGeometry>
        </mxCell>
        <mxCell id="ZCHlw5TDTNwKEh7PZDNd-47" style="edgeStyle=orthogonalEdgeStyle;rounded=0;orthogonalLoop=1;jettySize=auto;html=1;exitX=0.5;exitY=1;exitDx=0;exitDy=0;entryX=1;entryY=0.5;entryDx=0;entryDy=0;" parent="1" source="ZCHlw5TDTNwKEh7PZDNd-40" target="ZCHlw5TDTNwKEh7PZDNd-45" edge="1">
          <mxGeometry relative="1" as="geometry" />
        </mxCell>
        <mxCell id="ZCHlw5TDTNwKEh7PZDNd-55" style="edgeStyle=orthogonalEdgeStyle;rounded=0;orthogonalLoop=1;jettySize=auto;html=1;entryX=0.5;entryY=0;entryDx=0;entryDy=0;" parent="1" target="ZCHlw5TDTNwKEh7PZDNd-54" edge="1">
          <mxGeometry relative="1" as="geometry">
            <mxPoint x="1420" y="390" as="targetPoint" />
            <Array as="points">
              <mxPoint x="1323" y="100" />
              <mxPoint x="1600" y="100" />
              <mxPoint x="1600" y="300" />
              <mxPoint x="1380" y="300" />
            </Array>
            <mxPoint x="1323" y="110" as="sourcePoint" />
          </mxGeometry>
        </mxCell>
        <mxCell id="ZCHlw5TDTNwKEh7PZDNd-40" value="最小行号r_min,&lt;br&gt;最小列号c_min，&lt;br&gt;行数r_num,&lt;br&gt;列数c_num" style="shape=parallelogram;html=1;strokeWidth=2;perimeter=parallelogramPerimeter;whiteSpace=wrap;rounded=1;arcSize=12;size=0.23;" parent="1" vertex="1">
          <mxGeometry x="1190" y="75" width="150" height="70" as="geometry" />
        </mxCell>
        <mxCell id="ZCHlw5TDTNwKEh7PZDNd-44" value="更新数据库，存入参数" style="text;html=1;align=center;verticalAlign=middle;resizable=0;points=[];autosize=1;" parent="1" vertex="1">
          <mxGeometry x="1120" y="-440" width="140" height="20" as="geometry" />
        </mxCell>
        <mxCell id="LjgDyFFiDiQ0sC_zzbQo-2" style="edgeStyle=orthogonalEdgeStyle;rounded=0;orthogonalLoop=1;jettySize=auto;html=1;exitX=0.5;exitY=1;exitDx=0;exitDy=0;entryX=0.5;entryY=0;entryDx=0;entryDy=0;" edge="1" parent="1" source="ZCHlw5TDTNwKEh7PZDNd-45" target="ZCHlw5TDTNwKEh7PZDNd-48">
          <mxGeometry relative="1" as="geometry" />
        </mxCell>
        <mxCell id="ZCHlw5TDTNwKEh7PZDNd-45" value="改变数据中的行列号属性使其从0开始，并对其按时间进行排序，按时间存入json" style="rounded=1;whiteSpace=wrap;html=1;absoluteArcSize=1;arcSize=14;strokeWidth=2;" parent="1" vertex="1">
          <mxGeometry x="860" y="210" width="100" height="100" as="geometry" />
        </mxCell>
        <mxCell id="LjgDyFFiDiQ0sC_zzbQo-3" style="edgeStyle=orthogonalEdgeStyle;rounded=0;orthogonalLoop=1;jettySize=auto;html=1;exitX=0.5;exitY=1;exitDx=0;exitDy=0;" edge="1" parent="1" source="ZCHlw5TDTNwKEh7PZDNd-48" target="ZCHlw5TDTNwKEh7PZDNd-51">
          <mxGeometry relative="1" as="geometry" />
        </mxCell>
        <mxCell id="ZCHlw5TDTNwKEh7PZDNd-48" value="json文件{hour:{[quadtree_code,&lt;br&gt;hour,count,row,col],...},...}" style="shape=parallelogram;html=1;strokeWidth=2;perimeter=parallelogramPerimeter;whiteSpace=wrap;rounded=1;arcSize=12;size=0.23;" parent="1" vertex="1">
          <mxGeometry x="795" y="370" width="230" height="110" as="geometry" />
        </mxCell>
        <mxCell id="ZCHlw5TDTNwKEh7PZDNd-53" style="edgeStyle=orthogonalEdgeStyle;rounded=0;orthogonalLoop=1;jettySize=auto;html=1;entryX=0;entryY=0.5;entryDx=0;entryDy=0;" parent="1" source="ZCHlw5TDTNwKEh7PZDNd-49" target="ZCHlw5TDTNwKEh7PZDNd-51" edge="1">
          <mxGeometry relative="1" as="geometry" />
        </mxCell>
        <mxCell id="ZCHlw5TDTNwKEh7PZDNd-49" value="按时间范围获取所有的时间序列time_all" style="rounded=1;whiteSpace=wrap;html=1;absoluteArcSize=1;arcSize=14;strokeWidth=2;" parent="1" vertex="1">
          <mxGeometry x="700" y="570" width="100" height="100" as="geometry" />
        </mxCell>
        <mxCell id="ZCHlw5TDTNwKEh7PZDNd-58" style="edgeStyle=orthogonalEdgeStyle;rounded=0;orthogonalLoop=1;jettySize=auto;html=1;exitX=1;exitY=0.5;exitDx=0;exitDy=0;" parent="1" source="ZCHlw5TDTNwKEh7PZDNd-51" target="ZCHlw5TDTNwKEh7PZDNd-57" edge="1">
          <mxGeometry relative="1" as="geometry" />
        </mxCell>
        <mxCell id="ZCHlw5TDTNwKEh7PZDNd-51" value="读取json文件，按hour填充所有时间序列time_all的属性，其中缺失数据的hour均添0属性" style="rounded=1;whiteSpace=wrap;html=1;absoluteArcSize=1;arcSize=14;strokeWidth=2;" parent="1" vertex="1">
          <mxGeometry x="860" y="570" width="100" height="100" as="geometry" />
        </mxCell>
        <mxCell id="ZCHlw5TDTNwKEh7PZDNd-62" style="edgeStyle=orthogonalEdgeStyle;rounded=0;orthogonalLoop=1;jettySize=auto;html=1;entryX=1;entryY=0.5;entryDx=0;entryDy=0;exitX=0.5;exitY=1;exitDx=0;exitDy=0;" parent="1" source="ZCHlw5TDTNwKEh7PZDNd-54" target="ZCHlw5TDTNwKEh7PZDNd-60" edge="1">
          <mxGeometry relative="1" as="geometry" />
        </mxCell>
        <mxCell id="ZCHlw5TDTNwKEh7PZDNd-54" value="按时间序列time_all中的小时数length,行数r_num,列数c_num初始化0矩阵 data_matrix" style="rounded=1;whiteSpace=wrap;html=1;absoluteArcSize=1;arcSize=14;strokeWidth=2;" parent="1" vertex="1">
          <mxGeometry x="1330" y="380" width="100" height="100" as="geometry" />
        </mxCell>
        <mxCell id="ZCHlw5TDTNwKEh7PZDNd-61" style="edgeStyle=orthogonalEdgeStyle;rounded=0;orthogonalLoop=1;jettySize=auto;html=1;entryX=0.5;entryY=0;entryDx=0;entryDy=0;" parent="1" source="ZCHlw5TDTNwKEh7PZDNd-57" target="ZCHlw5TDTNwKEh7PZDNd-60" edge="1">
          <mxGeometry relative="1" as="geometry" />
        </mxCell>
        <mxCell id="ZCHlw5TDTNwKEh7PZDNd-57" value="data_fill&lt;br&gt;{hour:{[quadtree_code,&lt;br&gt;hour,count,row,col],...},...}" style="shape=parallelogram;html=1;strokeWidth=2;perimeter=parallelogramPerimeter;whiteSpace=wrap;rounded=1;arcSize=12;size=0.23;" parent="1" vertex="1">
          <mxGeometry x="1041" y="570" width="200" height="100" as="geometry" />
        </mxCell>
        <mxCell id="ZCHlw5TDTNwKEh7PZDNd-64" style="edgeStyle=orthogonalEdgeStyle;rounded=0;orthogonalLoop=1;jettySize=auto;html=1;exitX=0.5;exitY=1;exitDx=0;exitDy=0;entryX=0.5;entryY=0;entryDx=0;entryDy=0;" parent="1" source="ZCHlw5TDTNwKEh7PZDNd-60" target="ZCHlw5TDTNwKEh7PZDNd-63" edge="1">
          <mxGeometry relative="1" as="geometry" />
        </mxCell>
        <mxCell id="ZCHlw5TDTNwKEh7PZDNd-60" value="按每小时填充对应行列号的count&lt;br&gt;data[row][col]=count&lt;br&gt;存为npy" style="rounded=1;whiteSpace=wrap;html=1;absoluteArcSize=1;arcSize=14;strokeWidth=2;" parent="1" vertex="1">
          <mxGeometry x="1073.5" y="720" width="135" height="90" as="geometry" />
        </mxCell>
        <mxCell id="ZCHlw5TDTNwKEh7PZDNd-63" value="train_id_layer.npy" style="shape=parallelogram;html=1;strokeWidth=2;perimeter=parallelogramPerimeter;whiteSpace=wrap;rounded=1;arcSize=12;size=0.23;" parent="1" vertex="1">
          <mxGeometry x="1066" y="860" width="150" height="80" as="geometry" />
        </mxCell>
      </root>
    </mxGraphModel>
  </diagram>
</mxfile>
